<svg xmlns="http://www.w3.org/2000/svg" width="32" height="36" viewBox="0 0 32 36">
  <defs>
    <linearGradient id="bank-24px-a" x1="50%" x2="50%" y1="0%" y2="100%">
      <stop offset="0%" stop-color="#00AEEF"/>
      <stop offset="100%" stop-color="#006DBF"/>
    </linearGradient>
  </defs>
  <g fill="none" fill-rule="evenodd" transform="translate(-3 -1)">
    <polygon points="0 0 40 0 40 40 0 40"/>
    <path fill="url(#bank-24px-a)" d="M6.66666667,16.6666667 L6.66666667,28.3333333 L11.6666667,28.3333333 L11.6666667,16.6666667 L6.66666667,16.6666667 Z M16.6666667,16.6666667 L16.6666667,28.3333333 L21.6666667,28.3333333 L21.6666667,16.6666667 L16.6666667,16.6666667 Z M3.33333333,36.6666667 L35,36.6666667 L35,31.6666667 L3.33333333,31.6666667 L3.33333333,36.6666667 Z M26.6666667,16.6666667 L26.6666667,28.3333333 L31.6666667,28.3333333 L31.6666667,16.6666667 L26.6666667,16.6666667 Z M19.1666667,1.66666667 L3.33333333,10 L3.33333333,13.3333333 L35,13.3333333 L35,10 L19.1666667,1.66666667 Z"/>
  </g>
</svg>
