<svg xmlns="http://www.w3.org/2000/svg" width="37" height="27" viewBox="0 0 37 27">
  <defs>
    <linearGradient id="logistics-24px-a" x1="50%" x2="50%" y1="0%" y2="100%">
      <stop offset="0%" stop-color="#00AEEF"/>
      <stop offset="100%" stop-color="#006DBF"/>
    </linearGradient>
  </defs>
  <g fill="none" fill-rule="evenodd" transform="translate(-1 -6)">
    <polygon points="0 0 40 0 40 40 0 40"/>
    <path fill="url(#logistics-24px-a)" d="M32.8708134,12.8947368 L27.84689,12.8947368 L27.84689,6.31578947 L4.40191388,6.31578947 C2.55980861,6.31578947 1.05263158,7.79605263 1.05263158,9.60526316 L1.05263158,27.6973684 L4.40191388,27.6973684 C4.40191388,30.4276316 6.64593301,32.6315789 9.42583732,32.6315789 C12.2057416,32.6315789 14.4497608,30.4276316 14.4497608,27.6973684 L24.4976077,27.6973684 C24.4976077,30.4276316 26.7416268,32.6315789 29.5215311,32.6315789 C32.3014354,32.6315789 34.5454545,30.4276316 34.5454545,27.6973684 L37.8947368,27.6973684 L37.8947368,19.4736842 L32.8708134,12.8947368 Z M9.42583732,30.1644737 C8.03588517,30.1644737 6.9138756,29.0625 6.9138756,27.6973684 C6.9138756,26.3322368 8.03588517,25.2302632 9.42583732,25.2302632 C10.8157895,25.2302632 11.937799,26.3322368 11.937799,27.6973684 C11.937799,29.0625 10.8157895,30.1644737 9.42583732,30.1644737 Z M32.0334928,15.3618421 L35.3157895,19.4736842 L27.84689,19.4736842 L27.84689,15.3618421 L32.0334928,15.3618421 Z M29.5215311,30.1644737 C28.1315789,30.1644737 27.0095694,29.0625 27.0095694,27.6973684 C27.0095694,26.3322368 28.1315789,25.2302632 29.5215311,25.2302632 C30.9114833,25.2302632 32.0334928,26.3322368 32.0334928,27.6973684 C32.0334928,29.0625 30.9114833,30.1644737 29.5215311,30.1644737 Z"/>
  </g>
</svg>
