<svg xmlns="http://www.w3.org/2000/svg" xmlns:xlink="http://www.w3.org/1999/xlink" width="69" height="40" viewBox="0 0 69 40">
  <defs>
    <polygon id="omaar-logo-a" points="0 0 69 0 69 40 0 40"/>
  </defs>
  <g fill="none" fill-rule="evenodd">
    <mask id="omaar-logo-b" fill="#fff">
      <use xlink:href="#omaar-logo-a"/>
    </mask>
    <path fill="#FFF" d="M58.4652951,15.2563389 C58.4938266,15.2173526 58.5224298,15.1784395 58.5510331,15.1394532 C57.9306514,14.324404 57.3508448,13.4725671 56.6824327,12.7009012 C54.3158208,9.96885248 51.3336303,8.94150365 47.8455427,9.61409139 C44.5936647,10.2410974 42.1542185,12.1296633 40.3950129,14.9671658 C40.3535777,15.0340728 40.3335052,15.1147569 40.2762271,15.2563389 L58.4652951,15.2563389 Z M51.0508957,0 C51.565682,0.0778261255 52.0817586,0.14803086 52.5951112,0.234650898 C58.1962528,1.1791171 62.63434,4.00716607 65.810803,8.83282555 C67.5203294,11.4301076 68.4489663,14.328801 68.8248227,17.4256506 C69.1164465,19.8284406 69.0259055,22.219139 68.686753,24.6088114 C68.6463214,24.8938075 68.5531279,24.9692885 68.2851609,24.9692885 C66.3977784,24.9695084 64.5104676,24.982113 62.6230851,24.9957436 C59.5415361,25.0180948 56.459987,25.0434505 53.3785097,25.0690995 C50.5956815,25.0922568 47.8128533,25.1165866 45.0300251,25.1421622 C43.4655221,25.1566722 41.9010191,25.1746264 40.3364444,25.1919211 C40.2416738,25.1930203 40.1469749,25.2025471 39.9563585,25.2138326 C41.2108141,27.1042307 42.7070708,28.6349577 44.6407632,29.676963 C46.6016969,30.7336249 48.6800542,31.0938822 50.8783444,30.6762446 C53.0603616,30.2617582 54.8848026,29.1664764 56.4695931,27.6639632 C58.7198566,29.9394613 60.9574314,32.2022816 63.2401692,34.5106836 C62.7249528,34.9287609 62.2361889,35.3519679 61.7212593,35.7387535 C58.9331262,37.8332436 55.83258,39.2217291 52.4151044,39.7429882 C45.4974261,40.7979646 39.703159,38.6027109 35.1158906,33.2014899 C33.064846,30.7866082 31.5287312,28.0324281 30.3921295,25.0553223 C29.7865871,23.4692669 29.5485137,21.8042129 29.6285167,20.1042763 C29.8465894,15.4742814 26.978525,12.0908968 23.4039109,10.7257885 C20.01425,9.43139786 16.6966347,9.58301957 13.5878445,11.5796774 C11.1380754,13.1530549 9.72784339,15.4940677 9.24804048,18.3896832 C8.49367532,22.9417055 11.0404373,27.3519991 14.883807,29.4193014 C16.1599121,30.1056663 17.4920767,30.6459056 18.9562892,30.6769774 C21.8809865,30.7390478 24.4083929,29.7259158 26.4883991,27.6182348 C27.0882065,27.0105022 27.5995518,26.3119724 28.1678885,25.6702367 C28.2504006,25.5770945 28.4280416,25.5254302 28.5552865,25.5357631 C28.6466161,25.5432379 28.7783773,25.6714825 28.8055468,25.7706338 C29.6537506,28.8671903 31.1239848,31.6381521 33.00341,34.1968142 C33.0388952,34.2450342 33.0708678,34.2959656 33.1332357,34.3880085 C32.7938681,34.672858 32.4630314,34.9648892 32.1178572,35.2380134 C29.4614136,37.3398318 26.4876823,38.7489097 23.1998172,39.4459006 C21.0967278,39.8917519 18.9750713,40.0236606 16.8287544,39.7957517 C13.1770048,39.4080867 9.86290221,38.1459405 7.00236502,35.7840421 C3.5111949,32.9016175 1.2189944,29.2416644 0.397960077,24.6843658 C-0.401926497,20.245272 -0.0345292315,15.9244564 1.85134782,11.8202642 C4.4911599,6.07512788 8.87598354,2.44419469 14.8996499,0.906872225 C17.0452499,0.359304608 19.2342208,0.205850835 21.4372423,0.395799344 C25.5479338,0.750340583 29.1613307,2.35024639 32.3229545,5.03400192 C33.0836281,5.67969494 33.7992104,6.38093618 34.622252,7.1361867 C34.6714295,7.05081247 34.7187431,6.9356855 34.7934412,6.84386239 C37.4713909,3.55230095 40.901125,1.51431173 44.950739,0.544050052 C45.8872615,0.319658719 46.8553981,0.233258529 47.8085521,0.0803910166 C47.9112082,0.0639024307 48.0107819,0.0272611287 48.1117175,0 L51.0508957,0 Z" mask="url(#omaar-logo-b)"/>
  </g>
</svg>
