<svg xmlns="http://www.w3.org/2000/svg" width="24" height="38" viewBox="0 0 24 38">
  <defs>
    <linearGradient id="phone-24px-a" x1="50%" x2="50%" y1="0%" y2="100%">
      <stop offset="0%" stop-color="#00AEEF"/>
      <stop offset="100%" stop-color="#006DBF"/>
    </linearGradient>
  </defs>
  <g fill="none" fill-rule="evenodd" transform="translate(-8 -1)">
    <polygon points="0 0 40 0 40 40 0 40"/>
    <path fill="url(#phone-24px-a)" d="M28.3333333,1.68333333 L11.6666667,1.66666667 C9.83333333,1.66666667 8.33333333,3.16666667 8.33333333,5 L8.33333333,35 C8.33333333,36.8333333 9.83333333,38.3333333 11.6666667,38.3333333 L28.3333333,38.3333333 C30.1666667,38.3333333 31.6666667,36.8333333 31.6666667,35 L31.6666667,5 C31.6666667,3.16666667 30.1666667,1.68333333 28.3333333,1.68333333 Z M28.3333333,31.6666667 L11.6666667,31.6666667 L11.6666667,8.33333333 L28.3333333,8.33333333 L28.3333333,31.6666667 Z"/>
  </g>
</svg>
