<svg xmlns="http://www.w3.org/2000/svg" width="30" height="34" viewBox="0 0 30 34">
  <defs>
    <linearGradient id="receipt-24px-a" x1="50%" x2="50%" y1="0%" y2="100%">
      <stop offset="0%" stop-color="#00AEEF"/>
      <stop offset="100%" stop-color="#006DBF"/>
    </linearGradient>
  </defs>
  <g fill="none" fill-rule="evenodd" transform="translate(-5 -3)">
    <path fill="url(#receipt-24px-a)" d="M30,28.3333333 L10,28.3333333 L10,25 L30,25 L30,28.3333333 Z M30,21.6666667 L10,21.6666667 L10,18.3333333 L30,18.3333333 L30,21.6666667 Z M30,15 L10,15 L10,11.6666667 L30,11.6666667 L30,15 Z M5,36.6666667 L7.5,34.1666667 L10,36.6666667 L12.5,34.1666667 L15,36.6666667 L17.5,34.1666667 L20,36.6666667 L22.5,34.1666667 L25,36.6666667 L27.5,34.1666667 L30,36.6666667 L32.5,34.1666667 L35,36.6666667 L35,3.33333333 L32.5,5.83333333 L30,3.33333333 L27.5,5.83333333 L25,3.33333333 L22.5,5.83333333 L20,3.33333333 L17.5,5.83333333 L15,3.33333333 L12.5,5.83333333 L10,3.33333333 L7.5,5.83333333 L5,3.33333333 L5,36.6666667 Z"/>
    <polygon points="0 0 40 0 40 40 0 40"/>
  </g>
</svg>
